<svg width="23" height="30" viewBox="0 0 23 30" fill="none" xmlns="http://www.w3.org/2000/svg%22%3E
<path d="M11.5699 30C13.3659 30 14.8227 28.3213 14.8227 26.25H8.31707C8.31707 28.3213 9.77389 30 11.5699 30ZM22.5222 21.2279C21.5398 20.0115 19.7016 18.1816 19.7016 12.1875C19.7016 7.63477 16.9314 3.99023 13.196 3.09609V1.875C13.196 0.839648 12.4679 0 11.5699 0C10.6719 0 9.94373 0.839648 9.94373 1.875V3.09609C6.20837 3.99023 3.43812 7.63477 3.43812 12.1875C3.43812 18.1816 1.59993 20.0115 0.617532 21.2279C0.312438 21.6059 0.17718 22.0576 0.179723 22.5C0.185316 23.4609 0.839741 24.375 1.81197 24.375H21.3278C22.3 24.375 22.9549 23.4609 22.96 22.5C22.9626 22.0576 22.8273 21.6053 22.5222 21.2279Z" fill="#959595"/>
</svg>